<?xml version="1.0" standalone="no"?>
<!DOCTYPE svg PUBLIC "-//W3C//DTD SVG 20010904//EN"
 "http://www.w3.org/TR/2001/REC-SVG-20010904/DTD/svg10.dtd">
<svg version="1.0" xmlns="http://www.w3.org/2000/svg"
 width="4000.000000pt" height="4000.000000pt" viewBox="0 0 4000.000000 4000.000000"
 preserveAspectRatio="xMidYMid meet">
<metadata>
Created by potrace 1.14, written by Peter Selinger 2001-2017
</metadata>
<g transform="translate(0.000000,4000.000000) scale(0.100000,-0.100000)"
fill="#000000" stroke="none">
<path d="M19475 34189 c-2640 -119 -5161 -1142 -7126 -2892 -2757 -2454 -4168
-6007 -3838 -9672 185 -2060 904 -3997 2111 -5683 186 -259 420 -558 601 -767
39 -44 95 -109 126 -145 65 -75 144 -161 360 -388 213 -225 537 -527 879 -822
l52 -45 -45 -220 c-26 -121 -66 -317 -90 -435 -24 -118 -108 -523 -185 -900
-227 -1105 -258 -1267 -274 -1428 -103 -1007 272 -2020 1005 -2716 182 -173
423 -354 615 -462 l69 -39 -52 -5 c-89 -9 -153 -76 -153 -160 0 -103 90 -358
186 -524 91 -159 252 -346 409 -475 l40 -32 -990 6 c-1068 6 -1934 6 -2030 0
-33 -2 -123 -6 -200 -10 -316 -13 -817 -74 -876 -105 -27 -15 -35 -57 -14 -79
37 -42 468 -97 945 -121 293 -15 170 -15 9425 -14 9111 0 8674 0 8875 14 237
18 600 81 636 111 15 12 19 56 6 76 -4 6 -19 16 -34 22 -51 19 -269 61 -435
83 l-168 23 -1610 -3 -1610 -3 35 28 c259 209 440 463 544 762 67 191 73 275
26 341 -34 47 -76 60 -197 60 l-108 0 110 66 c752 452 1287 1171 1500 2016 65
258 93 471 100 748 7 302 -13 469 -111 950 -60 293 -150 730 -274 1335 -28
138 -94 456 -146 708 -52 252 -94 461 -94 466 0 5 57 60 128 122 826 729 1510
1521 2098 2429 1507 2328 2117 5121 1723 7900 -593 4191 -3478 7740 -7479
9200 -1400 511 -2954 747 -4465 679z m-5407 -6483 c55 -29 76 -62 80 -129 4
-78 -19 -120 -82 -148 -43 -19 -76 -19 -1339 -17 -1291 3 -1296 3 -1323 24
-94 70 -97 197 -5 260 l36 24 1303 0 c1100 0 1307 -2 1330 -14z m10540 -6
c102 -63 96 -222 -12 -271 -40 -18 -177 -19 -4615 -19 -4555 0 -4575 0 -4616
20 -104 50 -113 200 -16 266 l36 24 4595 0 c4567 0 4595 0 4628 -20z m4362 1
c49 -26 83 -93 77 -150 -5 -47 -27 -83 -71 -115 -27 -21 -34 -21 -1174 -24
-1037 -2 -1151 -1 -1190 14 -114 43 -126 209 -20 274 32 20 53 20 1188 20
1106 0 1157 -1 1190 -19z m-8635 -741 c123 -20 269 -57 340 -85 l40 -15 -40 4
c-419 51 -750 20 -1099 -101 -367 -127 -1094 -568 -1661 -1006 -248 -192 -538
-437 -725 -613 -127 -119 -134 -125 -175 -151 -56 -36 -93 -71 -124 -119 -15
-23 -97 -116 -182 -205 -86 -90 -176 -185 -200 -212 l-44 -47 -75 14 c-41 7
-106 16 -144 19 -37 4 -70 8 -72 10 -2 2 49 61 113 133 508 565 1090 1089
1668 1501 432 307 939 612 1210 728 215 91 440 147 675 169 101 9 379 -4 495
-24z m-7461 -545 c112 -53 112 -221 1 -275 -40 -19 -62 -20 -737 -20 l-695 0
-33 23 c-48 32 -72 69 -77 119 -7 60 24 121 75 147 36 19 60 20 735 21 609 0
703 -2 731 -15z m4945 -17 c-24 -17 -119 -87 -210 -155 l-166 -123 -1544 0
c-1450 0 -1546 1 -1579 18 -104 52 -109 210 -8 272 33 20 54 20 1792 20 l1760
0 -45 -32z m8072 9 c47 -31 82 -104 73 -151 -9 -50 -43 -98 -84 -118 -33 -17
-134 -18 -1680 -18 l-1645 0 -150 113 c-82 62 -177 131 -210 155 l-60 42 1861
0 1861 0 34 -23z m3079 1 c55 -38 75 -73 75 -133 0 -58 -18 -91 -69 -129 -27
-21 -35 -21 -1029 -24 -961 -2 -1003 -1 -1037 16 -108 58 -108 220 0 274 33
17 103 18 1031 18 l996 0 33 -22z m-8370 -1189 c794 -51 1590 -274 2218 -623
64 -36 126 -72 137 -80 23 -18 13 -15 -170 54 -386 145 -957 290 -1440 365
-296 46 -731 85 -952 85 l-91 0 -36 -49 c-114 -155 -373 -217 -624 -150 -82
22 -174 65 -220 104 l-31 26 -98 -21 c-526 -112 -913 -305 -1186 -590 -102
-106 -154 -139 -217 -140 -42 0 -80 10 -80 20 0 17 117 160 204 248 530 542
1492 822 2586 751z m-4271 -96 c-8 -10 -72 -80 -144 -155 l-129 -138 -2305 0
-2304 0 -42 25 c-45 26 -75 79 -75 132 0 45 37 107 77 131 l38 22 2449 0
c2330 0 2448 -1 2435 -17z m12647 -9 c51 -38 69 -71 69 -129 0 -60 -20 -95
-75 -132 l-33 -23 -2496 0 -2497 0 -148 155 -148 155 2650 -2 2651 -3 27 -21z
m-11720 -399 c49 -40 50 -44 29 -85 -8 -15 -19 -60 -25 -98 -19 -118 4 -233
96 -482 13 -37 14 -51 4 -75 l-11 -30 -45 70 c-70 112 -141 255 -175 356 -49
147 -52 307 -7 364 18 23 27 26 55 22 19 -4 55 -22 79 -42z m-976 -545 c12 -8
11 -10 -6 -10 -38 0 -143 -60 -179 -103 -38 -44 -65 -118 -65 -177 0 -32 16
-103 34 -155 16 -43 -86 84 -119 148 -77 152 -48 243 91 287 64 21 218 27 244
10z m-3393 -346 c54 -40 75 -83 71 -142 -5 -61 -28 -96 -78 -124 -33 -17 -68
-18 -745 -16 l-710 3 -30 23 c-76 60 -86 161 -22 231 48 52 30 51 784 48 694
-2 702 -2 730 -23z m2383 21 c0 -2 -45 -72 -100 -155 l-100 -150 -473 0 c-453
0 -473 1 -505 20 -102 63 -96 222 12 271 38 17 77 19 604 19 309 0 562 -2 562
-5z m13706 -21 c43 -31 65 -67 71 -112 8 -57 -25 -121 -76 -150 l-39 -22
-2000 0 -2001 0 -105 155 -104 155 2113 -2 2114 -3 27 -21z m-13292 -28 c3
-14 33 -65 66 -115 l61 -90 -82 -117 c-650 -928 -1077 -1915 -1233 -2849 -74
-442 -86 -971 -31 -1335 33 -221 220 -765 367 -1065 16 -33 22 -51 13 -40 -29
37 -224 439 -290 599 -141 340 -246 687 -267 881 -20 183 -17 722 5 905 115
955 471 1885 1085 2835 95 148 283 415 292 415 4 0 11 -11 14 -24z m1224 -839
c4 -66 -16 -98 -128 -205 -331 -313 -531 -778 -590 -1371 -24 -249 -9 -695 36
-1001 41 -285 139 -684 238 -978 31 -90 56 -169 56 -176 0 -8 -8 -24 -19 -37
l-18 -23 -53 135 c-223 567 -356 1111 -401 1646 -15 187 -7 611 16 753 88 557
292 940 633 1184 72 52 204 127 217 123 5 -2 11 -24 13 -50z m-2391 -411 c-18
-46 -122 -282 -127 -289 -3 -4 -669 -7 -1479 -7 -1614 0 -1505 -4 -1550 59
-44 61 -39 139 11 196 16 19 44 39 62 44 18 5 671 10 1560 10 1304 1 1527 -1
1523 -13z m12223 -8 c84 -43 110 -141 59 -224 -40 -66 -28 -64 -639 -62 l-551
3 -64 145 c-36 80 -65 148 -65 153 0 4 274 7 608 7 l608 0 44 -22z m2190 15
c19 -3 50 -23 71 -44 52 -52 61 -110 28 -176 -44 -87 -9 -83 -694 -83 -581 0
-601 1 -633 20 -102 63 -96 222 12 271 38 17 77 19 612 19 314 0 586 -3 604
-7z m-9945 -1292 c681 -454 1345 -696 2145 -783 152 -16 678 -16 845 0 183 18
446 58 609 93 77 16 145 29 151 29 8 0 15 -31 19 -92 46 -598 198 -1185 388
-1496 63 -103 160 -217 227 -268 l52 -39 -5 -340 c-3 -219 -10 -383 -20 -460
-117 -913 -597 -1683 -1357 -2178 -787 -512 -1744 -708 -2678 -546 -587 102
-1149 348 -1621 709 -135 104 -418 391 -523 531 -312 417 -506 878 -589 1399
-18 119 -22 188 -25 580 l-5 446 121 187 c491 764 632 1180 752 2235 13 111
26 202 29 202 3 0 26 -28 52 -63 227 -307 557 -515 942 -592 141 -28 352 -49
393 -39 68 17 103 64 103 137 0 39 -7 54 -54 113 -98 127 -202 305 -240 412
l-14 39 86 -64 c48 -36 146 -104 217 -152z m-4915 4 c0 -2 -9 -46 -20 -97 -10
-51 -24 -119 -30 -150 l-11 -58 -1288 0 -1288 0 -33 23 c-81 55 -93 178 -22
240 53 47 18 46 1395 47 713 0 1297 -2 1297 -5z m14900 -20 c49 -29 83 -97 76
-153 -3 -24 -15 -57 -27 -73 -45 -63 64 -59 -1553 -59 l-1476 0 -4 23 c-21 97
-56 275 -56 281 0 3 676 5 1503 4 1487 -3 1502 -3 1537 -23z m-15922 -1295
c97 -59 96 -192 -1 -264 -28 -21 -33 -21 -815 -21 -769 0 -788 0 -821 20 -102
60 -107 197 -11 263 l33 22 791 0 c772 0 792 -1 824 -20z m13362 -2 c49 -34
72 -83 67 -141 -5 -60 -30 -95 -87 -124 -40 -21 -58 -23 -192 -23 -81 0 -148
3 -150 8 -2 4 0 73 6 155 l9 147 157 0 c146 0 159 -2 190 -22z m2572 -3 c91
-62 83 -209 -14 -262 -31 -17 -77 -18 -703 -18 -626 0 -672 1 -703 18 -96 53
-104 201 -13 263 l36 24 680 0 680 0 37 -25z m-13020 -286 c29 -6 56 -17 60
-23 4 -6 26 -67 49 -136 48 -143 157 -421 218 -556 l41 -92 0 -363 c1 -329 6
-451 26 -633 l7 -59 -47 6 c-259 36 -591 440 -744 907 -145 441 -129 764 44
897 77 58 217 79 346 52z m8372 -23 c132 -65 192 -197 190 -421 -3 -218 -75
-495 -194 -740 -100 -205 -192 -339 -324 -471 -95 -95 -123 -117 -196 -152
-47 -22 -100 -44 -119 -48 l-34 -6 7 68 c20 186 26 324 26 596 l0 296 69 109
c118 187 249 462 327 691 l39 114 76 -4 c57 -3 91 -12 133 -32z m-10133 -953
c37 -5 37 -6 97 -142 34 -75 64 -144 68 -154 6 -16 -71 -17 -1464 -15 -1468 3
-1471 3 -1498 24 -93 69 -98 194 -10 257 29 20 45 22 231 27 256 7 2528 10
2576 3z m14768 -21 c52 -27 86 -96 76 -157 -9 -64 -66 -121 -127 -130 -24 -3
-681 -5 -1460 -3 -1413 3 -1417 3 -1444 24 -93 69 -97 193 -10 259 27 20 41
20 1219 25 1600 7 1700 6 1746 -18z m-13436 -1992 c-5 -4 -44 -19 -88 -35
-306 -108 -657 -304 -931 -522 -135 -108 -384 -355 -490 -488 -263 -328 -451
-676 -577 -1070 -41 -127 -72 -255 -117 -475 -17 -85 -52 -252 -76 -370 -76
-365 -163 -785 -209 -1010 -24 -118 -76 -370 -115 -560 -39 -190 -91 -442
-115 -560 -24 -118 -69 -336 -100 -485 -92 -446 -99 -507 -99 -830 0 -215 4
-309 17 -404 32 -225 66 -369 134 -576 106 -323 259 -619 460 -890 l75 -100
-82 80 c-371 365 -653 869 -780 1395 -60 251 -85 497 -77 773 6 245 19 336
107 766 223 1086 391 1903 475 2316 168 822 183 892 220 1017 189 640 593
1214 1142 1621 285 211 627 379 983 484 l145 43 53 -57 c29 -31 49 -60 45 -63z
m10202 -2106 c289 -57 531 -281 625 -579 41 -130 38 -226 -29 -990 -56 -623
-89 -1001 -166 -1875 -13 -157 -85 -980 -160 -1830 -74 -850 -140 -1574 -146
-1609 -33 -179 -168 -332 -353 -400 l-71 -26 -5310 0 c-5179 0 -5311 0 -5365
19 -91 31 -150 65 -208 120 -105 98 -155 203 -172 357 -6 52 -55 609 -110
1239 -55 630 -109 1246 -120 1370 -11 124 -24 277 -30 340 -5 63 -17 192 -25
285 -8 94 -20 222 -25 285 -6 63 -17 189 -25 280 -8 91 -22 246 -30 345 -9 99
-47 538 -85 975 -39 437 -71 838 -71 891 -1 161 45 311 137 450 57 86 183 205
272 259 91 53 234 100 337 108 44 4 2548 6 5565 5 4980 -2 5492 -4 5565 -19z
m-11423 -7399 c132 -124 282 -200 455 -230 78 -13 680 -15 5408 -13 l5320 3
73 23 c161 50 284 122 390 229 l62 63 160 -2 159 -3 -43 -91 c-181 -381 -523
-644 -952 -731 -85 -17 -313 -18 -5229 -18 -4933 0 -5143 1 -5225 18 -399 86
-733 335 -913 684 -25 49 -51 102 -56 116 l-11 27 161 0 161 0 80 -75z"/>
<path d="M18215 19155 c-197 -36 -381 -157 -471 -308 -33 -57 -52 -107 -40
-107 3 0 58 18 121 39 208 72 292 86 525 86 235 0 322 -14 557 -90 127 -41
133 -42 127 -21 -27 91 -150 232 -261 299 -164 100 -369 137 -558 102z"/>
<path d="M21565 19155 c-161 -30 -282 -93 -395 -205 -66 -66 -140 -176 -140
-208 0 -6 45 5 99 23 248 84 415 110 651 102 184 -6 294 -27 479 -92 57 -20
106 -33 109 -30 13 13 -65 142 -124 205 -163 172 -428 252 -679 205z"/>
<path d="M18380 18514 c-104 -38 -202 -134 -261 -257 -56 -117 -72 -204 -66
-352 9 -192 58 -316 172 -431 98 -99 144 -119 270 -119 88 0 107 3 159 27 119
56 227 202 272 368 25 90 25 291 0 380 -46 168 -152 311 -272 367 -74 35 -203
42 -274 17z m283 -294 c72 -63 76 -212 7 -282 -40 -40 -79 -38 -118 6 -67 77
-56 237 20 290 32 23 53 20 91 -14z"/>
<path d="M21468 18507 c-136 -58 -233 -178 -289 -357 -31 -97 -34 -298 -6
-400 44 -165 153 -311 273 -368 51 -23 71 -27 154 -27 88 0 101 3 162 33 170
84 288 309 288 552 0 239 -114 460 -282 550 -56 30 -73 34 -153 37 -77 3 -98
0 -147 -20z m71 -280 c27 -23 51 -91 51 -149 0 -67 -12 -103 -48 -140 -75 -80
-172 20 -159 163 10 117 90 181 156 126z"/>
<path d="M19000 16705 c0 -3 12 -29 26 -58 100 -199 289 -355 504 -417 105
-30 325 -39 432 -17 161 34 354 125 458 218 40 36 42 38 13 25 -123 -60 -360
-99 -613 -100 -174 0 -190 1 -274 27 -157 49 -338 151 -482 273 -35 30 -64 52
-64 49z"/>
<path d="M19846 12474 c-548 -85 -1025 -445 -1263 -953 -93 -197 -146 -404
-162 -626 -19 -271 22 -527 126 -779 97 -238 238 -445 421 -618 l79 -74 6
-124 c7 -146 23 -206 74 -280 109 -155 298 -224 472 -171 l72 22 57 -22 c87
-35 236 -33 312 2 l55 25 63 -29 c87 -41 208 -48 301 -18 l64 20 76 -26 c66
-22 88 -25 164 -20 75 4 99 10 161 41 89 43 156 112 197 201 27 56 32 81 40
197 9 133 9 133 41 162 18 16 56 49 83 73 133 118 289 328 376 507 63 128 124
316 151 464 27 152 29 419 4 567 -85 504 -354 925 -771 1202 -193 128 -441
222 -679 258 -128 19 -397 18 -520 -1z m519 -270 c345 -58 679 -263 894 -548
353 -466 410 -1070 149 -1579 -109 -212 -240 -363 -471 -544 -30 -23 -30 -24
-42 -247 -6 -114 -16 -145 -59 -186 -37 -34 -136 -40 -183 -11 -57 36 -68 64
-68 172 0 104 -10 129 -50 129 -35 0 -42 -17 -50 -120 -8 -109 -21 -139 -70
-170 -30 -18 -47 -22 -97 -18 -56 4 -64 8 -99 46 -41 43 -45 62 -39 182 2 50
-31 90 -74 90 -54 0 -70 -28 -73 -127 -3 -98 -19 -135 -73 -165 -45 -25 -129
-20 -168 9 -49 37 -64 75 -63 165 1 91 -14 128 -52 128 -39 0 -47 -18 -47
-112 0 -95 -10 -126 -54 -167 -31 -29 -111 -40 -156 -21 -41 17 -88 73 -94
112 -3 18 -7 99 -10 180 l-4 146 -44 38 c-118 103 -268 266 -331 360 -115 172
-198 377 -234 577 -24 131 -23 381 1 512 55 296 195 565 406 775 333 334 781
474 1255 394z"/>
<path d="M20580 11036 c-169 -46 -293 -193 -307 -363 -26 -317 296 -533 585
-391 271 133 302 519 56 694 -91 65 -227 90 -334 60z"/>
<path d="M19460 11026 c-113 -31 -210 -111 -258 -213 -24 -52 -27 -70 -27
-163 0 -97 2 -110 32 -172 109 -231 388 -320 591 -188 114 73 173 185 174 325
0 127 -47 233 -141 318 -99 90 -248 127 -371 93z"/>
</g>
</svg>
